<svg width="15" height="12" viewBox="0 0 15 12" fill="none" xmlns="http://www.w3.org/2000/svg">
<path fill-rule="evenodd" clip-rule="evenodd" d="M12.5791 5.2099C12.3513 5.44855 11.982 5.44855 11.7542 5.2099C11.5264 4.97124 11.5264 4.58431 11.7542 4.34566L12.5084 3.55556H7.5C6.85567 3.55556 6.33333 4.10276 6.33333 4.77778V5.38889C6.33333 5.7264 6.07217 6 5.75 6C5.42783 6 5.16667 5.7264 5.16667 5.38889V4.77778C5.16667 3.42775 6.21134 2.33333 7.5 2.33333H12.5084L11.7542 1.54323C11.5264 1.30458 11.5264 0.917644 11.7542 0.67899C11.982 0.440337 12.3513 0.440337 12.5791 0.67899L14.2879 2.46911C14.295 2.47655 14.3019 2.48412 14.3086 2.49181C14.4262 2.60361 14.5 2.76499 14.5 2.94444C14.5 3.1239 14.4262 3.28528 14.3086 3.39708C14.3019 3.40477 14.295 3.41234 14.2879 3.41978L12.5791 5.2099ZM9.83333 6.61111C9.83333 6.2736 9.57217 6 9.25 6C8.92783 6 8.66667 6.2736 8.66667 6.61111V7.83333C8.66667 8.17084 8.4055 8.44444 8.08333 8.44444H2.49162L3.24581 7.65434C3.47362 7.41569 3.47362 7.02876 3.24581 6.7901C3.01801 6.55145 2.64866 6.55145 2.42085 6.7901L0.712102 8.58022C0.705004 8.58766 0.698107 8.59523 0.69141 8.60292C0.573833 8.71472 0.5 8.8761 0.5 9.05556C0.5 9.23501 0.573833 9.39639 0.691411 9.50819C0.698107 9.51589 0.705004 9.52345 0.712102 9.53089L2.42085 11.321C2.64866 11.5597 3.01801 11.5597 3.24581 11.321C3.47362 11.0824 3.47362 10.6954 3.24581 10.4568L2.49162 9.66667H8.08333C9.04983 9.66667 9.83333 8.84585 9.83333 7.83333V6.61111Z" fill="#131727" fill-opacity="0.8"/>
</svg>
